<svg width="1440" height="520" viewBox="0 -120 1440 520" fill="none" xmlns="http://www.w3.org/2000/svg">
    <!-- Back range (mountain-3 original) -->
    <path d="M136.465 -81.3143L105.924 -97.798C97.2568 -102.476 86.9629 -102.524 77.2726 -100.763C47.3653 -95.325 9.6399 -105.916 -24.546 -109.867C-41.2475 -111.798 -54.3315 -97.9584 -54.3315 -81.1456L-54.3314 1021.27C-54.3314 1038.95 -40.0045 1053.27 -22.3314 1053.27H1414.33C1432 1053.27 1446.33 1038.95 1446.33 1021.27L1446.33 232.025C1446.33 227.048 1445.17 222.14 1442.94 217.69L1437.12 206.082C1434.63 201.105 1430.88 196.865 1426.25 193.78L1407.77 181.477L1392.29 173.093C1390.06 171.885 1387.69 170.946 1385.24 170.297L1360.98 163.876C1358.59 163.243 1356.28 162.334 1354.09 161.167L1346.19 156.946C1340.34 153.82 1333.6 151.77 1327.62 148.882C1322.82 146.561 1317.14 143.591 1311.96 141.999C1306.36 140.276 1300.19 140.156 1294.62 138.317L1285.14 135.185L1271.49 130.678C1268.6 129.726 1265.58 129.193 1262.55 129.07C1250.85 128.596 1243.19 127.997 1238 127.323C1230.45 126.343 1222.44 124.869 1215 123.251C1205.84 121.258 1194.25 117.628 1184.79 117.356L1184.41 117.345C1182.9 117.303 1181.39 117.26 1179.89 117.078C1167.43 115.563 1162.9 114.287 1145.5 113.629L1084.09 115.776C1081.38 115.87 1078.66 115.62 1076.01 115.029L1060.7 111.618C1058.41 111.109 1056.08 110.852 1053.74 110.852H1039.17C1032.45 110.852 1025.91 108.739 1020.46 104.813L976.925 73.4435C971.22 69.3325 964.32 67.2151 957.291 67.4185L953.796 67.5196C946.863 67.7202 940.053 65.6631 934.391 61.6581L925.458 55.3398C923.591 54.0187 921.587 52.9017 919.481 52.008L884.298 37.0764C880.344 35.3982 876.092 34.5334 871.796 34.5334H856.247C854.281 34.5334 852.319 34.3521 850.386 33.992L814.58 27.3205C809.391 26.3536 804.043 26.6855 799.013 28.2865L755.928 42.0004C749.031 44.1954 741.595 43.988 734.831 41.4118L652.219 9.9445C646.892 7.91547 641.12 7.34615 635.5 8.29544L598.672 14.5154C591.978 15.6459 585.098 14.6184 579.027 11.5816L460.455 -47.7288C455.326 -50.2943 449.602 -51.4344 443.882 -51.0297L425.467 -49.7272C423.125 -49.5615 420.772 -49.8422 418.535 -50.5545C414.823 -51.7359 410.834 -51.7184 407.132 -50.5047L380.163 -41.6602C376.944 -40.6047 373.579 -40.0669 370.191 -40.0669H353.149C349.749 -40.0669 346.371 -39.525 343.141 -38.4615L326.526 -32.9905C319.126 -30.554 311.092 -30.9005 303.929 -33.9652L252.731 -55.8716C248.1 -57.8532 243.067 -58.7134 238.04 -58.3824L220.91 -57.2543C215.533 -56.9002 210.153 -57.9097 205.27 -60.1892L169.08 -77.0843C164.192 -79.3661 158.694 -79.9947 153.418 -78.875C147.656 -77.6524 141.648 -78.517 136.465 -81.3143Z" fill="#C8D6DF"/>
    <!-- Front range (mountain-2 original) -->
    <path d="M136.52 28.7336L105.979 12.2499C97.3119 7.57191 87.0181 7.52337 77.3278 9.28521C47.4204 14.7228 9.69508 4.13232 -24.4908 0.180519C-41.1923 -1.75013 -54.2764 12.0895 -54.2764 28.9022L-54.2763 358.027C-54.2763 375.701 -39.9494 390.027 -22.2763 390.027H1864.95C1880.28 390.027 1892.71 377.598 1892.71 362.266C1892.71 346.934 1880.28 334.504 1864.95 334.504H1543.22C1540.65 334.504 1538.09 334.196 1535.6 333.585L1438.82 309.87C1435.22 308.987 1431.79 307.484 1428.71 305.427L1407.82 291.525L1392.34 283.141C1390.11 281.933 1387.74 280.994 1385.29 280.345L1361.03 273.924C1358.64 273.29 1356.33 272.381 1354.15 271.215L1346.24 266.994C1340.39 263.867 1333.65 261.818 1327.68 258.93C1322.88 256.609 1317.2 253.639 1312.02 252.047C1306.41 250.324 1300.25 250.203 1294.68 248.365L1285.19 245.233L1271.54 240.726C1268.66 239.774 1265.64 239.241 1262.6 239.118C1250.9 238.644 1243.24 238.044 1238.06 237.371C1230.51 236.391 1222.5 234.917 1215.06 233.299C1205.89 231.305 1194.31 227.676 1184.84 227.404L1184.47 227.393C1182.96 227.351 1181.44 227.308 1179.94 227.126C1167.49 225.611 1162.95 224.335 1145.55 223.677L1084.14 225.823C1081.43 225.918 1078.72 225.667 1076.07 225.077L1060.75 221.665C1058.47 221.156 1056.14 220.9 1053.8 220.9H1039.22C1032.51 220.9 1025.96 218.787 1020.51 214.861L976.98 183.491C971.275 179.38 964.375 177.263 957.346 177.466L953.851 177.567C946.918 177.768 940.108 175.711 934.446 171.706L925.514 165.388C923.646 164.067 921.642 162.95 919.536 162.056L884.353 147.124C880.399 145.446 876.147 144.581 871.852 144.581H856.303C854.336 144.581 852.374 144.4 850.441 144.04L814.635 137.368C809.446 136.401 804.098 136.733 799.068 138.334L755.983 152.048C749.086 154.243 741.65 154.036 734.886 151.46L652.274 119.992C646.948 117.963 641.175 117.394 635.555 118.343L598.727 124.563C592.033 125.694 585.154 124.666 579.082 121.629L460.51 62.319C455.382 59.7535 449.657 58.6135 443.937 59.0181L425.522 60.3207C423.18 60.4863 420.827 60.2056 418.59 59.4934C414.878 58.312 410.889 58.3294 407.188 59.5432L380.218 68.3876C376.999 69.4432 373.634 69.981 370.246 69.981H353.204C349.804 69.981 346.426 70.5229 343.196 71.5863L326.581 77.0573C319.181 79.4939 311.147 79.1473 303.984 76.0827L252.786 54.1762C248.155 52.1947 243.122 51.3344 238.095 51.6654L220.965 52.7936C215.588 53.1477 210.208 52.1382 205.326 49.8587L169.135 32.9635C164.247 30.6817 158.749 30.0532 153.473 31.1729C147.711 32.3954 141.703 31.5309 136.52 28.7336Z" fill="#C8D6DF"/>
</svg>
