<svg width="1440" height="563" viewBox="0 0 1440 563" fill="none" xmlns="http://www.w3.org/2000/svg">
    <path d="M1675.1 43.0073L1704.66 20.6452C1715.16 12.6973 1729.47 12.7059 1742.44 15.0134C1773.59 20.5547 1811.89 5.50497 1846.46 0.286526C1862.75 -2.17192 1875.39 11.5386 1875.39 28.011L1875.39 540.393C1875.39 558.067 1861.06 572.393 1843.39 572.393H-129.849C-147.522 572.393 -161.849 558.067 -161.849 540.393L-161.849 522.962C-161.849 505.289 -147.522 490.962 -129.849 490.962H202.548C206.085 490.962 209.598 490.376 212.943 489.227L312.332 455.091C316.585 453.63 320.481 451.29 323.769 448.223L345.52 427.927L361.456 415.83C363.958 413.93 366.727 412.409 369.673 411.316L393.903 402.326C396.782 401.258 399.492 399.781 401.95 397.94L408.244 393.228C415.339 387.916 424.242 383.663 431.545 378.641L431.889 378.404C435.443 375.96 439.305 373.303 443.041 371.338C450.178 367.584 459.066 366.869 466.385 363.483L473.833 360.035L487.009 353.938C490.745 352.209 494.789 351.229 498.899 350.984C508.099 350.435 514.815 349.779 519.805 349.05C529.865 347.58 541.111 344.625 550.752 341.395C559.375 338.507 569.427 334.511 577.968 333.933C580.251 333.779 582.551 333.726 584.804 333.333C597.209 331.175 602.139 329.364 619.946 328.421L682.799 331.5C686.555 331.684 690.314 331.204 693.904 330.083L707.612 325.802C710.7 324.838 713.917 324.347 717.152 324.347H728.665C737.207 324.347 745.395 320.932 751.405 314.861L796.263 269.553C802.17 263.587 810.316 260.381 818.705 260.721C826.999 261.058 835.058 257.929 840.952 252.086L850.333 242.785C852.187 240.947 854.259 239.343 856.503 238.008L891.961 216.915C896.91 213.971 902.562 212.417 908.321 212.417H921.586C924.315 212.417 927.032 212.068 929.672 211.379L963.607 202.516C970.641 200.679 978.091 201.292 984.731 204.254L1024.42 221.962C1033.44 225.986 1043.82 225.619 1052.53 220.967L1133.93 177.507C1140.81 173.836 1148.79 172.801 1156.37 174.596L1188.92 182.301C1197.81 184.406 1207.18 182.609 1214.66 177.363L1335.22 92.8352C1341.49 88.4394 1349.13 86.4376 1356.75 87.193L1373.23 88.827C1375.74 89.0759 1378.27 88.6663 1380.58 87.6386C1384.39 85.9364 1388.76 85.9609 1392.55 87.7058L1419.48 100.082C1423.67 102.009 1428.23 103.007 1432.84 103.007H1447.36C1451.99 103.007 1456.57 104.012 1460.77 105.952L1473.53 111.841C1483.14 116.276 1494.33 115.673 1503.4 110.229L1552.49 80.7902C1558.32 77.2923 1565.12 75.7436 1571.89 76.3687L1584.85 77.5649C1592.05 78.2295 1599.26 76.4362 1605.31 72.4773L1642.05 48.4355C1646.78 45.3433 1652.63 44.4884 1658.04 46.0985C1663.89 47.8395 1670.23 46.6919 1675.1 43.0073Z" fill="#DFE6EB"/>
</svg>
