<svg width="325" height="111" viewBox="0 0 325 111" fill="none" xmlns="http://www.w3.org/2000/svg">
<path d="M89.1307 34.3615V31.2146H105.665V34.3615H99.2595V51.9376H95.5358V34.3615H89.1307ZM108.852 51.9376V31.2146H116.623C118.215 31.2146 119.551 31.4912 120.63 32.0444C121.716 32.5975 122.536 33.3733 123.089 34.3717C123.649 35.3633 123.929 36.5202 123.929 37.8423C123.929 39.1713 123.645 40.3248 123.079 41.3029C122.519 42.2743 121.692 43.0265 120.6 43.5594C119.507 44.0855 118.164 44.3486 116.572 44.3486H111.038V41.2321H116.067C116.997 41.2321 117.76 41.1039 118.353 40.8476C118.947 40.5845 119.385 40.2034 119.669 39.7042C119.959 39.1982 120.104 38.5776 120.104 37.8423C120.104 37.1071 119.959 36.4797 119.669 35.9603C119.379 35.4341 118.937 35.0361 118.343 34.7663C117.75 34.4897 116.984 34.3514 116.046 34.3514H112.606V51.9376H108.852ZM119.557 42.5475L124.688 51.9376H120.498L115.459 42.5475H119.557ZM130.045 51.9376H126.038L133.334 31.2146H137.968L145.274 51.9376H141.267L135.732 35.4645H135.57L130.045 51.9376ZM130.177 43.8123H141.105V46.8277H130.177V43.8123ZM148.411 31.2146L153.804 47.5259H154.016L159.4 31.2146H163.528L156.222 51.9376H151.588L144.292 31.2146H148.411ZM166.257 51.9376V31.2146H179.735V34.3615H170.011V39.9875H179.037V43.1344H170.011V48.7907H179.816V51.9376H166.257ZM183.565 51.9376V31.2146H191.336C192.928 31.2146 194.264 31.4912 195.343 32.0444C196.429 32.5975 197.249 33.3733 197.802 34.3717C198.362 35.3633 198.642 36.5202 198.642 37.8423C198.642 39.1713 198.359 40.3248 197.792 41.3029C197.232 42.2743 196.406 43.0265 195.313 43.5594C194.22 44.0855 192.878 44.3486 191.286 44.3486H185.751V41.2321H190.78C191.711 41.2321 192.473 41.1039 193.067 40.8476C193.66 40.5845 194.099 40.2034 194.382 39.7042C194.672 39.1982 194.817 38.5776 194.817 37.8423C194.817 37.1071 194.672 36.4797 194.382 35.9603C194.092 35.4341 193.65 35.0361 193.057 34.7663C192.463 34.4897 191.697 34.3514 190.76 34.3514H187.319V51.9376H183.565ZM194.271 42.5475L199.401 51.9376H195.212L190.173 42.5475H194.271ZM213.36 36.9114C213.265 36.0277 212.867 35.3397 212.166 34.8472C211.471 34.3548 210.567 34.1086 209.454 34.1086C208.671 34.1086 208 34.2266 207.44 34.4627C206.88 34.6988 206.452 35.0193 206.155 35.424C205.858 35.8287 205.707 36.2908 205.7 36.8102C205.7 37.242 205.798 37.6164 205.993 37.9334C206.196 38.2505 206.469 38.5203 206.813 38.7429C207.157 38.9588 207.538 39.1409 207.956 39.2893C208.375 39.4377 208.796 39.5625 209.221 39.6637L211.164 40.1494C211.946 40.3315 212.699 40.5778 213.42 40.8881C214.149 41.1984 214.8 41.5896 215.373 42.0618C215.953 42.534 216.412 43.104 216.749 43.7719C217.087 44.4397 217.255 45.2222 217.255 46.1194C217.255 47.3336 216.945 48.4028 216.324 49.327C215.704 50.2444 214.807 50.9628 213.633 51.4823C212.466 51.9949 211.053 52.2513 209.393 52.2513C207.781 52.2513 206.381 52.0017 205.194 51.5025C204.013 51.0033 203.089 50.2748 202.421 49.3169C201.76 48.359 201.403 47.192 201.349 45.8158H205.042C205.096 46.5376 205.319 47.138 205.71 47.6169C206.101 48.0959 206.611 48.4534 207.238 48.6895C207.872 48.9256 208.58 49.0437 209.363 49.0437C210.179 49.0437 210.894 48.9222 211.508 48.6794C212.129 48.4298 212.614 48.0858 212.965 47.6473C213.316 47.2021 213.495 46.6827 213.501 46.089C213.495 45.5494 213.336 45.1041 213.026 44.7534C212.715 44.3958 212.28 44.099 211.72 43.8629C211.167 43.6201 210.52 43.4042 209.778 43.2153L207.42 42.6082C205.713 42.1697 204.364 41.5053 203.373 40.6149C202.388 39.7177 201.895 38.527 201.895 37.043C201.895 35.822 202.226 34.7528 202.887 33.8354C203.555 32.918 204.462 32.2063 205.609 31.7003C206.756 31.1877 208.054 30.9313 209.504 30.9313C210.975 30.9313 212.263 31.1877 213.37 31.7003C214.483 32.2063 215.356 32.9112 215.99 33.8151C216.625 34.7123 216.952 35.7444 216.972 36.9114H213.36ZM220.602 51.9376V31.2146H234.08V34.3615H224.356V39.9875H233.382V43.1344H224.356V48.7907H234.161V51.9376H220.602Z" fill="white"/>
<path d="M93.0163 61.2888H94.6636L98.537 70.7497H98.6705L102.544 61.2888H104.191V72.6865H102.9V64.0269H102.789L99.2271 72.6865H97.9804L94.4187 64.0269H94.3074V72.6865H93.0163V61.2888ZM116.575 66.9876C116.575 68.1897 116.358 69.2286 115.924 70.1042C115.49 70.9798 114.895 71.655 114.138 72.1299C113.381 72.6048 112.516 72.8423 111.544 72.8423C110.572 72.8423 109.708 72.6048 108.951 72.1299C108.194 71.655 107.599 70.9798 107.164 70.1042C106.73 69.2286 106.513 68.1897 106.513 66.9876C106.513 65.7856 106.73 64.7467 107.164 63.8711C107.599 62.9955 108.194 62.3203 108.951 61.8454C109.708 61.3705 110.572 61.133 111.544 61.133C112.516 61.133 113.381 61.3705 114.138 61.8454C114.895 62.3203 115.49 62.9955 115.924 63.8711C116.358 64.7467 116.575 65.7856 116.575 66.9876ZM115.24 66.9876C115.24 66.0007 115.075 65.1678 114.744 64.4888C114.418 63.8099 113.974 63.296 113.414 62.9473C112.858 62.5985 112.234 62.4241 111.544 62.4241C110.854 62.4241 110.229 62.5985 109.669 62.9473C109.112 63.296 108.669 63.8099 108.339 64.4888C108.012 65.1678 107.849 66.0007 107.849 66.9876C107.849 67.9745 108.012 68.8075 108.339 69.4864C108.669 70.1654 109.112 70.6793 109.669 71.028C110.229 71.3768 110.854 71.5511 111.544 71.5511C112.234 71.5511 112.858 71.3768 113.414 71.028C113.974 70.6793 114.418 70.1654 114.744 69.4864C115.075 68.8075 115.24 67.9745 115.24 66.9876ZM126.376 61.2888H127.756V68.8353C127.756 69.6144 127.572 70.3101 127.205 70.9223C126.841 71.5307 126.327 72.0112 125.663 72.3637C124.999 72.7124 124.22 72.8868 123.326 72.8868C122.432 72.8868 121.653 72.7124 120.989 72.3637C120.324 72.0112 119.809 71.5307 119.441 70.9223C119.078 70.3101 118.896 69.6144 118.896 68.8353V61.2888H120.276V68.724C120.276 69.2805 120.399 69.7758 120.644 70.2099C120.888 70.6403 121.237 70.9798 121.69 71.2284C122.146 71.4732 122.692 71.5957 123.326 71.5957C123.96 71.5957 124.506 71.4732 124.962 71.2284C125.418 70.9798 125.767 70.6403 126.008 70.2099C126.253 69.7758 126.376 69.2805 126.376 68.724V61.2888ZM139.55 61.2888V72.6865H138.214L132.004 63.7375H131.892V72.6865H130.512V61.2888H131.848L138.081 70.26H138.192V61.2888H139.55ZM141.688 62.5132V61.2888H150.237V62.5132H146.653V72.6865H145.273V62.5132H141.688ZM151.503 72.6865H150.056L154.241 61.2888H155.666L159.851 72.6865H158.404L154.998 63.092H154.909L151.503 72.6865ZM152.037 68.2343H157.869V69.4586H152.037V68.2343ZM163.006 61.2888V72.6865H161.626V61.2888H163.006ZM174.811 61.2888V72.6865H173.476L167.265 63.7375H167.154V72.6865H165.773V61.2888H167.109L173.342 70.26H173.454V61.2888H174.811ZM181.358 62.5132V61.2888H189.906V62.5132H186.322V72.6865H184.942V62.5132H181.358ZM192.036 72.6865V61.2888H195.887C196.777 61.2888 197.508 61.441 198.08 61.7452C198.651 62.0457 199.074 62.4594 199.349 62.9862C199.623 63.5131 199.76 64.1123 199.76 64.7838C199.76 65.4553 199.623 66.0508 199.349 66.5703C199.074 67.0897 198.653 67.4978 198.085 67.7946C197.518 68.0877 196.792 68.2343 195.909 68.2343H192.793V66.9876H195.865C196.473 66.9876 196.963 66.8986 197.334 66.7205C197.709 66.5424 197.98 66.2901 198.146 65.9636C198.317 65.6334 198.402 65.2402 198.402 64.7838C198.402 64.3275 198.317 63.9286 198.146 63.5873C197.976 63.2459 197.703 62.9825 197.328 62.797C196.954 62.6078 196.458 62.5132 195.842 62.5132H193.416V72.6865H192.036ZM197.401 67.5664L200.206 72.6865H198.603L195.842 67.5664H197.401ZM202.528 72.6865H201.081L205.266 61.2888H206.691L210.876 72.6865H209.429L206.023 63.092H205.934L202.528 72.6865ZM203.062 68.2343H208.894V69.4586H203.062V68.2343ZM214.031 61.2888V72.6865H212.651V61.2888H214.031ZM216.798 72.6865V61.2888H218.179V71.4621H223.477V72.6865H216.798ZM231.847 64.1382C231.78 63.5743 231.509 63.1365 231.034 62.8248C230.559 62.5132 229.977 62.3574 229.287 62.3574C228.782 62.3574 228.341 62.439 227.962 62.6022C227.588 62.7655 227.294 62.9899 227.083 63.2756C226.875 63.5613 226.771 63.8859 226.771 64.2495C226.771 64.5538 226.844 64.8153 226.988 65.0342C227.137 65.2494 227.326 65.4294 227.556 65.5741C227.786 65.7151 228.027 65.8319 228.28 65.9247C228.532 66.0137 228.764 66.0861 228.975 66.1417L230.133 66.4534C230.43 66.5313 230.76 66.6389 231.123 66.7762C231.491 66.9134 231.841 67.1008 232.175 67.3383C232.513 67.572 232.791 67.8725 233.01 68.2398C233.229 68.6071 233.338 69.0579 233.338 69.5922C233.338 70.2081 233.177 70.7646 232.854 71.2618C232.535 71.7589 232.068 72.154 231.452 72.4471C230.84 72.7403 230.096 72.8868 229.22 72.8868C228.404 72.8868 227.697 72.7551 227.1 72.4917C226.506 72.2282 226.039 71.8609 225.697 71.3898C225.36 70.9186 225.169 70.3713 225.124 69.748H226.549C226.586 70.1784 226.731 70.5346 226.983 70.8165C227.239 71.0948 227.562 71.3026 227.951 71.4398C228.344 71.5734 228.767 71.6402 229.22 71.6402C229.747 71.6402 230.22 71.5549 230.639 71.3842C231.058 71.2098 231.39 70.9686 231.635 70.6607C231.88 70.3491 232.003 69.9855 232.003 69.5699C232.003 69.1915 231.897 68.8835 231.685 68.6461C231.474 68.4086 231.196 68.2157 230.851 68.0673C230.506 67.9189 230.133 67.789 229.732 67.6777L228.33 67.277C227.439 67.021 226.734 66.6556 226.215 66.1807C225.695 65.7058 225.436 65.0843 225.436 64.3163C225.436 63.6782 225.608 63.1217 225.953 62.6468C226.302 62.1681 226.769 61.7971 227.356 61.5337C227.946 61.2666 228.604 61.133 229.331 61.133C230.066 61.133 230.719 61.2647 231.29 61.5281C231.862 61.7879 232.314 62.144 232.648 62.5967C232.986 63.0493 233.164 63.5632 233.182 64.1382H231.847Z" fill="white"/>
<path d="M55.1616 69.1711L34.6851 33.5393L33.895 32.1633L78.021 32.1633L77.23 33.5393L56.7544 69.1711L55.9575 70.5569L55.1616 69.1711Z" stroke="white" stroke-width="1.83648"/>
<path d="M53.8608 48.8145L55.8474 45.6468L57.9446 48.7015" stroke="white" stroke-width="0.820182" stroke-miterlimit="10"/>
<path d="M55.958 45.6468L55.958 61.033" stroke="white" stroke-width="0.820182" stroke-miterlimit="10"/>
<path d="M58.0546 58.4305L56.0679 61.5983L53.9707 58.5437" stroke="white" stroke-width="0.820182" stroke-miterlimit="10"/>
<path d="M57.7238 55.7162L55.952 58.0916L54.0811 55.8003" stroke="white" stroke-width="0.820182" stroke-miterlimit="10"/>
<path d="M54.082 50.9635L55.8543 48.5871L57.7246 50.8782" stroke="white" stroke-width="0.820182" stroke-miterlimit="10"/>
<path d="M42.3696 42.3692C42.3696 42.3692 43.4099 42.5216 43.6575 42.3184L45.4896 41.3033C45.4896 41.3033 45.7869 39.6281 47.5703 40.6434C47.5703 40.6434 48.2636 41.2526 49.2542 40.7453C49.2542 40.7453 51.3837 40.1363 52.1267 39.2731L54.5047 37.0397C54.5047 37.0397 55.6932 36.0751 55.8911 36.1259C55.8911 36.1259 56.7821 36.482 57.7242 37.4458C57.7242 37.4458 59.5561 39.1203 59.9033 39.1712C59.9033 39.1712 60.4482 39.8316 61.0918 39.4761C61.0918 39.4761 60.8442 38.258 62.9247 39.8313C62.9247 39.8313 64.9547 41.3542 64.8563 41.9634C64.8563 41.9634 67.3329 40.999 68.026 41.5572C68.026 41.5572 68.917 41.9634 68.9669 43.0293C68.9669 43.0293 68.8685 43.5369 70.2549 43.4862C70.447 42.8975 71.391 45.1413 70.8003 45.2625C70.8003 45.2625 68.5699 46.3793 67.7289 45.5162C67.7289 45.5162 68.3735 44.8054 69.2645 44.9071C69.2645 44.9071 69.9578 44.6535 69.0664 44.4507C69.0664 44.4507 68.3735 43.9432 66.7383 43.7401C66.7383 43.7401 66.4905 43.4356 64.411 43.5369C64.411 43.5369 62.9735 44.1455 62.8752 44.3994C62.8752 44.3994 62.1809 46.1256 62.1809 44.7045C62.1809 44.7045 62.6774 42.8774 64.2121 42.5218C64.2121 42.5218 63.0733 42.3697 63.2213 41.9636C63.2213 41.9636 63.1728 41.0498 62.0326 40.8468C62.0326 40.8468 61.0919 41.405 60.3491 40.3899C60.3491 40.3899 57.3277 40.593 57.7245 39.3746C57.7245 39.3746 56.7823 38.2581 55.7432 38.3087C55.7432 38.3087 55.1485 40.0345 55.1485 40.7958C55.1485 40.7958 54.7028 40.8466 54.108 42.2679C54.108 42.2679 52.4242 43.1812 52.1269 44.1455C52.1269 44.1455 52.7216 42.2171 53.5641 41.7604C53.5641 41.7604 54.2573 40.4408 54.4553 40.2376C54.4553 40.2376 54.158 39.0701 54.505 38.5119C54.505 38.5119 53.217 39.2225 52.9195 39.7807C52.9195 39.7807 52.1766 40.5932 51.6813 40.7453C51.186 40.8973 51.4833 40.7958 51.4833 40.7958C51.4833 40.7958 51.0379 41.9126 50.2451 42.2679C50.2451 42.2679 50.1954 41.7097 50.5427 40.9481C50.5427 40.9481 49.5023 41.9123 47.9168 41.811C47.9168 41.811 46.976 41.5567 46.2828 42.166C46.2828 42.166 44.6986 42.877 44.401 43.4354C44.401 43.4354 43.6578 43.8916 44.7469 44.3993C44.7469 44.3993 47.0754 43.9429 47.4713 44.7547C47.4713 44.7547 47.323 45.2618 48.3633 45.1605C48.3633 45.1605 49.6503 45.0082 49.5021 45.5159L50.0472 45.9219H48.066C48.066 45.9219 47.1239 46.0237 47.0754 45.2622C47.0754 45.2622 45.4901 46.0741 44.3016 45.1096C44.3016 45.1096 43.3607 44.754 42.7173 44.8558C42.7173 44.8558 41.0821 43.4858 41.132 43.0289C41.132 43.0289 40.6366 42.9782 40.2894 43.7397C39.7093 43.851 39.4205 40.2771 42.3696 42.3692Z" fill="white"/>
</svg>
